<svg width="17" height="21" viewBox="0 0 17 21" fill="none" xmlns="http://www.w3.org/2000/svg">
<path d="M15.5317 18.0635C14.7017 19.3035 13.8217 20.5135 12.4817 20.5335C11.1417 20.5635 10.7117 19.7435 9.19175 19.7435C7.66175 19.7435 7.19175 20.5135 5.92175 20.5635C4.61175 20.6135 3.62175 19.2435 2.78175 18.0335C1.07175 15.5635 -0.238253 11.0135 1.52175 7.95348C2.39175 6.43348 3.95175 5.47348 5.64175 5.44348C6.92175 5.42348 8.14175 6.31348 8.93175 6.31348C9.71175 6.31348 11.1917 5.24348 12.7417 5.40348C13.3917 5.43348 15.2117 5.66348 16.3817 7.38348C16.2917 7.44348 14.2117 8.66348 14.2317 11.1935C14.2617 14.2135 16.8817 15.2235 16.9117 15.2335C16.8817 15.3035 16.4917 16.6735 15.5317 18.0635ZM9.82175 2.06348C10.5517 1.23348 11.7617 0.603477 12.7617 0.563477C12.8917 1.73348 12.4217 2.91348 11.7217 3.75348C11.0317 4.60348 9.89175 5.26348 8.77175 5.17348C8.62175 4.02348 9.18175 2.82348 9.82175 2.06348Z" fill="black"/>
</svg>
