<svg width="33" height="33" viewBox="0 0 33 33" fill="none" xmlns="http://www.w3.org/2000/svg">
<path d="M28.3408 6.7312H4.34082C3.81039 6.7312 3.30168 6.94191 2.92661 7.31699C2.55153 7.69206 2.34082 8.20077 2.34082 8.7312V24.7312C2.34082 25.2616 2.55153 25.7703 2.92661 26.1454C3.30168 26.5205 3.81039 26.7312 4.34082 26.7312H28.3408C28.8713 26.7312 29.38 26.5205 29.755 26.1454C30.1301 25.7703 30.3408 25.2616 30.3408 24.7312V8.7312C30.3408 8.20077 30.1301 7.69206 29.755 7.31699C29.38 6.94191 28.8713 6.7312 28.3408 6.7312ZM26.1408 8.7312L16.3408 15.5112L6.54082 8.7312H26.1408ZM4.34082 24.7312V9.6412L15.7708 17.5512C15.9382 17.6673 16.1371 17.7296 16.3408 17.7296C16.5446 17.7296 16.7434 17.6673 16.9108 17.5512L28.3408 9.6412V24.7312H4.34082Z" fill="#929292"/>
</svg>
