<svg width="21" height="21" viewBox="0 0 21 21" fill="none" xmlns="http://www.w3.org/2000/svg">
<path d="M6.62178 0.563477H15.0218C18.2218 0.563477 20.8218 3.16348 20.8218 6.36348V14.7635C20.8218 16.3017 20.2107 17.777 19.123 18.8647C18.0353 19.9524 16.56 20.5635 15.0218 20.5635H6.62178C3.42178 20.5635 0.821777 17.9635 0.821777 14.7635V6.36348C0.821777 4.82522 1.43285 3.34997 2.52056 2.26226C3.60827 1.17455 5.08352 0.563477 6.62178 0.563477ZM6.42178 2.56348C5.467 2.56348 4.55132 2.94276 3.87619 3.61789C3.20106 4.29302 2.82178 5.2087 2.82178 6.16348V14.9635C2.82178 16.9535 4.43178 18.5635 6.42178 18.5635H15.2218C16.1766 18.5635 17.0922 18.1842 17.7674 17.5091C18.4425 16.8339 18.8218 15.9183 18.8218 14.9635V6.16348C18.8218 4.17348 17.2118 2.56348 15.2218 2.56348H6.42178ZM16.0718 4.06348C16.4033 4.06348 16.7212 4.19517 16.9557 4.42959C17.1901 4.66401 17.3218 4.98196 17.3218 5.31348C17.3218 5.645 17.1901 5.96294 16.9557 6.19736C16.7212 6.43178 16.4033 6.56348 16.0718 6.56348C15.7403 6.56348 15.4223 6.43178 15.1879 6.19736C14.9535 5.96294 14.8218 5.645 14.8218 5.31348C14.8218 4.98196 14.9535 4.66401 15.1879 4.42959C15.4223 4.19517 15.7403 4.06348 16.0718 4.06348ZM10.8218 5.56348C12.1479 5.56348 13.4196 6.09026 14.3573 7.02794C15.295 7.96562 15.8218 9.23739 15.8218 10.5635C15.8218 11.8896 15.295 13.1613 14.3573 14.099C13.4196 15.0367 12.1479 15.5635 10.8218 15.5635C9.4957 15.5635 8.22393 15.0367 7.28624 14.099C6.34856 13.1613 5.82178 11.8896 5.82178 10.5635C5.82178 9.23739 6.34856 7.96562 7.28624 7.02794C8.22393 6.09026 9.4957 5.56348 10.8218 5.56348ZM10.8218 7.56348C10.0261 7.56348 9.26307 7.87955 8.70046 8.44216C8.13785 9.00476 7.82178 9.76783 7.82178 10.5635C7.82178 11.3591 8.13785 12.1222 8.70046 12.6848C9.26307 13.2474 10.0261 13.5635 10.8218 13.5635C11.6174 13.5635 12.3805 13.2474 12.9431 12.6848C13.5057 12.1222 13.8218 11.3591 13.8218 10.5635C13.8218 9.76783 13.5057 9.00476 12.9431 8.44216C12.3805 7.87955 11.6174 7.56348 10.8218 7.56348Z" fill="black"/>
</svg>
