<svg width="27" height="27" viewBox="0 0 27 27" fill="none" xmlns="http://www.w3.org/2000/svg">
<g clip-path="url(#clip0_5_104)">
<path d="M16.9038 16.3268C16.7448 16.2748 15.7399 15.8218 16.3679 13.9128H16.3588C17.9958 12.2268 19.2468 9.51376 19.2468 6.84276C19.2468 2.73576 16.5159 0.582764 13.3419 0.582764C10.1659 0.582764 7.44985 2.73476 7.44985 6.84276C7.44985 9.52476 8.69385 12.2488 10.3408 13.9308C10.9829 15.6148 9.83485 16.2398 9.59485 16.3278C6.27085 17.5298 2.37085 19.7208 2.37085 21.8838V22.6948C2.37085 25.6418 8.08485 26.3118 13.3728 26.3118C18.6688 26.3118 24.3108 25.6418 24.3108 22.6948V21.8838C24.3108 19.6558 20.3918 17.4818 16.9038 16.3268Z" fill="#929292"/>
</g>
<defs>
<clipPath id="clip0_5_104">
<rect width="26" height="26" fill="white" transform="translate(0.34082 0.426758)"/>
</clipPath>
</defs>
</svg>
