<svg width="24" height="19" viewBox="0 0 24 19" fill="none" xmlns="http://www.w3.org/2000/svg">
<path d="M23.4648 2.50043C22.6298 2.87043 21.7328 3.12043 20.7898 3.23343C21.7628 2.65122 22.4907 1.7349 22.8378 0.655432C21.9236 1.19842 20.9231 1.58063 19.8798 1.78543C19.1782 1.0363 18.2488 0.539758 17.2361 0.372905C16.2234 0.206053 15.1839 0.378223 14.279 0.862684C13.3742 1.34715 12.6546 2.11679 12.2319 3.05214C11.8093 3.98748 11.7073 5.03618 11.9418 6.03543C10.0895 5.94243 8.27742 5.46098 6.62321 4.62234C4.96901 3.78369 3.50963 2.60659 2.33979 1.16743C1.93979 1.85743 1.70979 2.65743 1.70979 3.50943C1.70934 4.27643 1.89822 5.03167 2.25967 5.70816C2.62111 6.38465 3.14395 6.96147 3.78179 7.38743C3.04207 7.36389 2.31866 7.16402 1.67179 6.80443V6.86443C1.67171 7.94017 2.04382 8.98281 2.72497 9.81543C3.40612 10.648 4.35436 11.2194 5.40879 11.4324C4.72257 11.6181 4.00313 11.6455 3.30479 11.5124C3.60229 12.438 4.18178 13.2475 4.96216 13.8274C5.74253 14.4073 6.68471 14.7286 7.65679 14.7464C6.00662 16.0418 3.96868 16.7445 1.87079 16.7414C1.49917 16.7415 1.12787 16.7198 0.758789 16.6764C2.88827 18.0456 5.36713 18.7723 7.89879 18.7694C16.4688 18.7694 21.1538 11.6714 21.1538 5.51543C21.1538 5.31543 21.1488 5.11343 21.1398 4.91343C22.0511 4.25441 22.8377 3.43833 23.4628 2.50343L23.4648 2.50043Z" fill="black"/>
</svg>
